HIERARCHY
ROOT Hips
{
	OFFSET 0.000000 8.830580 0.000000
	CHANNELS 6 Xposition Yposition Zposition Zrotation Yrotation Xrotation 
	JOINT Spine
	{
		OFFSET 0.000000 0.010000 0.000000
		CHANNELS 3 Zrotation Yrotation Xrotation
		JOINT Spine1
		{
			OFFSET 0.000000 2.459130 0.000000
			CHANNELS 3 Zrotation Yrotation Xrotation
			JOINT Neck
			{
				OFFSET 0.000000 2.484630 0.000000
				CHANNELS 3 Zrotation Yrotation Xrotation
				JOINT Head_virtual
				{
					OFFSET 0.000000 0.000000 0.000000
					CHANNELS 3 Zrotation Yrotation Xrotation
					JOINT Head
					{
						OFFSET 0.000000 0.927525 0.000000
						CHANNELS 3 Zrotation Yrotation Xrotation
						End Site
						{
							OFFSET 0.000000 0.000000 0.000000
						}
					}
				}
				JOINT LeftUpArm_virtual
				{
					OFFSET 0.000000 0.000000 0.000000
					CHANNELS 3 Zrotation Yrotation Xrotation
					JOINT LeftUpArm
					{
						OFFSET 1.248820 0.000000 0.000000
						CHANNELS 3 Zrotation Yrotation Xrotation
						JOINT LeftForeArm
						{
							OFFSET 2.597580 0.000000 0.000000
							CHANNELS 3 Zrotation Yrotation Xrotation
							JOINT LeftHand
							{
								OFFSET 2.455420 0.000000 0.000000
								CHANNELS 3 Zrotation Yrotation Xrotation
								End Site
								{
									OFFSET 0.000000 0.000000 0.000000
								}
							}
						}
					}
				}
				JOINT RightUpArm_virtual
				{
					OFFSET -0.000000 -0.000000 -0.000000
					CHANNELS 3 Zrotation Yrotation Xrotation
					JOINT RightUpArm
					{
						OFFSET -1.248820 -0.000000 -0.000000
						CHANNELS 3 Zrotation Yrotation Xrotation
						JOINT RightForeArm
						{
							OFFSET -2.597580 -0.000000 -0.000000
							CHANNELS 3 Zrotation Yrotation Xrotation
							JOINT RightHand
							{
								OFFSET -2.455420 -0.000000 -0.000000
								CHANNELS 3 Zrotation Yrotation Xrotation
								End Site
								{
									OFFSET 0.000000 0.000000 0.000000
								}
							}
						}
					}
				}
			}
		}
	}
	JOINT LeftUpLeg
	{
		OFFSET 1.271939 0.000000 0.000000
		CHANNELS 3 Zrotation Yrotation Xrotation
		JOINT LeftLowLeg
		{
			OFFSET 0.000000 -4.342910 0.000000
			CHANNELS 3 Zrotation Yrotation Xrotation
			JOINT LeftFoot
			{
				OFFSET 0.000000 -4.487670 0.000000
				CHANNELS 3 Zrotation Yrotation Xrotation
				JOINT LeftToeBase
				{
					OFFSET 0.000000 0.000000 1.515070
					CHANNELS 3 Zrotation Yrotation Xrotation
					End Site
					{
						OFFSET 0.000000 0.000000 0.000000
					}
				}
			}
		}
	}
	JOINT RightUpLeg
	{
		OFFSET -1.271939 0.000000 0.000000
		CHANNELS 3 Zrotation Yrotation Xrotation
		JOINT RightLowLeg
		{
			OFFSET 0.000000 -4.342910 0.000000
			CHANNELS 3 Zrotation Yrotation Xrotation
			JOINT RightFoot
			{
				OFFSET 0.000000 -4.487670 0.000000
				CHANNELS 3 Zrotation Yrotation Xrotation
				JOINT RightToeBase
				{
					OFFSET 0.000000 0.000000 1.515070
					CHANNELS 3 Zrotation Yrotation Xrotation
					End Site
					{
						OFFSET 0.000000 0.000000 0.000000
					}
				}
			}
		}
	}
}
MOTION
Frames: 10
Frame Time: 0.041667
-18.822955 9.230290 39.812097 -175.649826 -0.699519 -175.421724 3.138142 -2.851544 -8.240063 -0.418616 -3.271716 6.782005 0.000000 0.000000 0.000000 2.013832 4.536757 -4.956735 3.304229 5.396117 -50.315536 -2.124370 11.066400 -5.280920 -11.341600 -3.627100 -28.644501 0.000000 -20.052799 0.000000 31.141399 7.022940 17.872700 8.985680 -10.588900 0.159440 10.004500 -0.792420 -34.026600 0.000000 21.249100 0.000000 -16.167000 -2.368880 22.455799 3.631045 -4.228849 -5.574434 0.000000 0.000000 8.791030 10.591338 0.041630 7.712522 0.000000 0.000000 -37.598000 3.101507 2.984124 -2.921325 0.000000 0.000000 7.836450 7.491217 -8.722502 9.150352 0.000000 0.000000 -27.598300 
-18.819083 9.230689 39.802673 -175.668370 -0.564183 -175.490157 3.171942 -2.799526 -7.977653 -0.526822 -3.234807 6.240713 0.000000 0.000000 0.000000 2.032968 4.593787 -4.536462 3.332987 5.421049 -50.403911 -2.066740 11.187300 -4.953840 -11.274900 -3.669130 -28.677299 0.000000 -20.037500 0.000000 31.188900 7.039170 17.852400 9.032570 -10.610000 0.485237 9.961460 -0.763267 -34.085602 0.000000 21.228600 0.000000 -16.223700 -2.380460 22.458300 3.611788 -4.041651 -5.367257 0.000000 0.000000 8.689890 10.578385 -0.008240 7.709190 0.000000 0.000000 -37.618401 3.107313 3.139891 -2.789952 0.000000 0.000000 7.802900 7.455918 -8.767140 9.131772 0.000000 0.000000 -27.580900 
-18.816364 9.230694 39.798155 -175.667892 -0.601143 -175.490941 3.272447 -2.735782 -7.932179 -0.738382 -3.197813 6.077629 0.000000 0.000000 0.000000 2.215482 4.513292 -4.394013 3.338707 5.490216 -50.407751 -1.933040 11.099400 -4.815410 -11.260300 -3.677780 -28.698999 0.000000 -20.029900 0.000000 31.195999 7.015700 17.828100 9.138890 -10.721700 0.551848 9.951640 -0.774696 -34.119400 0.000000 21.198500 0.000000 -16.233801 -2.381900 22.448500 3.629815 -4.055684 -5.347099 0.000000 0.000000 8.689080 10.586222 -0.022778 7.696051 0.000000 0.000000 -37.604200 3.132214 3.108594 -2.741968 0.000000 0.000000 7.771120 7.449566 -8.787700 9.122758 0.000000 0.000000 -27.583500 
-18.814607 9.230807 39.795112 -175.673104 -0.628004 -175.489584 3.266336 -2.750843 -7.943282 -0.731785 -3.211474 6.054413 0.000000 0.000000 0.000000 2.215993 4.514045 -4.341747 3.341949 5.483668 -50.412858 -1.919330 11.108900 -4.780600 -11.270100 -3.671650 -28.660801 0.000000 -20.033899 0.000000 31.206400 6.993630 17.830099 9.098970 -10.717600 0.544334 9.972240 -0.768965 -34.092499 0.000000 21.160999 0.000000 -16.264601 -2.392350 22.431601 3.636983 -4.087691 -5.334299 0.000000 0.000000 8.685800 10.574686 -0.023042 7.696661 0.000000 0.000000 -37.596399 3.141395 3.101078 -2.712425 0.000000 0.000000 7.751580 7.429846 -8.809518 9.118108 0.000000 0.000000 -27.579200 
-18.812537 9.230843 39.791549 -175.679341 -0.661837 -175.487957 3.250487 -2.757119 -7.971748 -0.698989 -3.213498 6.067035 0.000000 0.000000 0.000000 2.219231 4.498851 -4.313358 3.329010 5.469333 -50.423428 -1.929040 11.080900 -4.777440 -11.262300 -3.651660 -28.605801 0.000000 -20.035500 0.000000 31.158400 7.003650 17.848499 9.068270 -10.704900 0.530889 9.947910 -0.799197 -34.105499 0.000000 21.110201 0.000000 -16.235300 -2.402420 22.444901 3.641332 -4.082047 -5.326431 0.000000 0.000000 8.693990 10.543533 -0.050151 7.684573 0.000000 0.000000 -37.597799 3.151850 3.088128 -2.679043 0.000000 0.000000 7.732790 7.436182 -8.826680 9.103442 0.000000 0.000000 -27.574200 
-18.810555 9.230769 39.788521 -175.690298 -0.691538 -175.485149 3.140555 -2.818532 -8.063460 -0.489564 -3.245663 6.237595 0.000000 0.000000 0.000000 2.112203 4.522498 -4.419337 3.293784 5.410869 -50.402239 -2.046230 11.116700 -4.903640 -11.269600 -3.605470 -28.526501 0.000000 -20.085100 0.000000 31.161800 7.032870 17.881001 8.950570 -10.646200 0.442131 9.931890 -0.793803 -34.108601 0.000000 21.079700 0.000000 -16.251200 -2.400460 22.480900 3.643197 -4.130510 -5.323387 0.000000 0.000000 8.706090 10.540992 -0.024527 7.681951 0.000000 0.000000 -37.584700 3.155380 3.067470 -2.659193 0.000000 0.000000 7.735210 7.457840 -8.823937 9.079251 0.000000 0.000000 -27.549700 
-18.808628 9.230706 39.786113 -175.698109 -0.715439 -175.478273 3.169802 -2.835792 -8.005097 -0.549954 -3.271243 6.100137 0.000000 0.000000 0.000000 2.125397 4.536858 -4.362783 3.286973 5.434713 -50.407301 -2.003100 11.163900 -4.850690 -11.288800 -3.628940 -28.715599 0.000000 -20.081301 0.000000 31.167601 7.013500 17.942900 8.963180 -10.625200 0.486867 9.916370 -0.794157 -34.150501 0.000000 21.094000 0.000000 -16.487700 -2.398790 22.558300 3.649578 -4.199414 -5.338113 0.000000 0.000000 8.740390 10.546469 0.023523 7.674201 0.000000 0.000000 -37.571100 3.159590 3.082225 -2.646671 0.000000 0.000000 7.731940 7.499693 -8.840446 9.056094 0.000000 0.000000 -27.563800 
-18.806593 9.230682 39.783219 -175.709180 -0.757613 -175.495131 3.194676 -2.831470 -7.974139 -0.623067 -3.274029 6.047327 0.000000 0.000000 0.000000 2.188444 4.516049 -4.327007 3.268685 5.473915 -50.407985 -1.955290 11.131100 -4.822640 -11.294900 -3.620980 -28.743799 0.000000 -20.096901 0.000000 31.204901 6.993840 17.934401 8.991580 -10.660400 0.497616 9.908250 -0.775779 -34.276001 0.000000 21.102900 0.000000 -16.497000 -2.381330 22.563700 3.650936 -4.222587 -5.343477 0.000000 0.000000 8.800950 10.538180 0.011006 7.655490 0.000000 0.000000 -37.579100 3.165939 3.046585 -2.596662 0.000000 0.000000 7.709090 7.508828 -8.843158 9.041604 0.000000 0.000000 -27.563500 
-18.804523 9.230573 39.780765 -175.707496 -0.795161 -175.513937 3.233782 -2.796078 -7.957605 -0.713309 -3.248977 6.034225 0.000000 0.000000 0.000000 2.292960 4.461181 -4.339826 3.277210 5.513774 -50.380960 -1.889190 11.065100 -4.807420 -11.301400 -3.646430 -28.693701 0.000000 -20.105700 0.000000 31.209000 7.001820 17.886999 9.031580 -10.737900 0.485191 9.897090 -0.776993 -34.299702 0.000000 21.127701 0.000000 -16.542999 -2.370020 22.545799 3.659396 -4.232059 -5.366134 0.000000 0.000000 8.900060 10.553797 0.022428 7.610490 0.000000 0.000000 -37.554399 3.186354 3.023572 -2.557242 0.000000 0.000000 7.705160 7.511170 -8.864416 9.031713 0.000000 0.000000 -27.532600 
-18.802497 9.230621 39.777811 -175.716771 -0.824886 -175.511748 3.213672 -2.807689 -7.990405 -0.694752 -3.255459 6.071064 0.000000 0.000000 0.000000 2.296073 4.460817 -4.349525 3.301380 5.510755 -50.368475 -1.894470 11.052600 -4.799280 -11.285800 -3.657670 -28.583799 0.000000 -20.082600 0.000000 31.174000 6.961050 17.994600 9.008990 -10.713100 0.436786 9.873700 -0.794322 -34.298302 0.000000 21.137699 0.000000 -16.602900 -2.397500 22.605400 3.659940 -4.214842 -5.385237 0.000000 0.000000 8.956340 10.576718 0.000882 7.593880 0.000000 0.000000 -37.583300 3.192452 2.998412 -2.537676 0.000000 0.000000 7.705410 7.502105 -8.865236 9.013318 0.000000 0.000000 -27.528700 
